<svg width="40" height="40" viewBox="0 0 40 40" fill="none" xmlns="http://www.w3.org/2000/svg">
<rect x="0.5" y="0.5" width="39" height="39" rx="19.5" stroke="#333333"/>
<mask id="mask0_2261_4164" style="mask-type:alpha" maskUnits="userSpaceOnUse" x="8" y="8" width="24" height="24">
<rect x="8" y="8" width="24" height="24" fill="#D9D9D9"/>
</mask>
<g mask="url(#mask0_2261_4164)">
<path d="M20 21.0533L14.927 26.1265C14.7885 26.2649 14.6144 26.3357 14.4048 26.339C14.1953 26.3422 14.018 26.2714 13.873 26.1265C13.7282 25.9815 13.6558 25.8059 13.6558 25.5995C13.6558 25.3932 13.7282 25.2175 13.873 25.0725L18.9463 19.9995L13.873 14.9265C13.7347 14.788 13.6638 14.6139 13.6605 14.4043C13.6573 14.1948 13.7282 14.0175 13.873 13.8725C14.018 13.7277 14.1937 13.6553 14.4 13.6553C14.6063 13.6553 14.782 13.7277 14.927 13.8725L20 18.9458L25.073 13.8725C25.2115 13.7342 25.3856 13.6634 25.5953 13.66C25.8048 13.6569 25.982 13.7277 26.127 13.8725C26.2718 14.0175 26.3443 14.1932 26.3443 14.3995C26.3443 14.6059 26.2718 14.7815 26.127 14.9265L21.0538 19.9995L26.127 25.0725C26.2653 25.211 26.3362 25.3851 26.3395 25.5948C26.3427 25.8043 26.2718 25.9815 26.127 26.1265C25.982 26.2714 25.8063 26.3438 25.6 26.3438C25.3937 26.3438 25.218 26.2714 25.073 26.1265L20 21.0533Z" fill="#333333"/>
</g>
</svg>
